<mxfile host="Electron" modified="2023-06-18T16:59:34.918Z" agent="Mozilla/5.0 (Windows NT 10.0; Win64; x64) AppleWebKit/537.36 (KHTML, like Gecko) draw.io/21.4.0 Chrome/112.0.5615.204 Electron/24.5.1 Safari/537.36" etag="AzhuJtpS4Y3-IGUn4zbi" version="21.4.0" type="device">
  <diagram name="Page-1" id="822b0af5-4adb-64df-f703-e8dfc1f81529">
    <mxGraphModel dx="1036" dy="614" grid="1" gridSize="10" guides="1" tooltips="1" connect="1" arrows="1" fold="1" page="1" pageScale="1" pageWidth="1100" pageHeight="850" background="none" math="0" shadow="0">
      <root>
        <mxCell id="0" />
        <mxCell id="1" parent="0" />
        <mxCell id="ad717CbtWpxfhqgO-wQq-3" value="" style="sketch=0;aspect=fixed;pointerEvents=1;shadow=0;dashed=0;html=1;strokeColor=none;labelPosition=center;verticalLabelPosition=bottom;verticalAlign=top;align=center;fillColor=#505050;shape=mxgraph.mscae.enterprise.server_generic" vertex="1" parent="1">
          <mxGeometry x="490" y="200" width="144" height="300" as="geometry" />
        </mxCell>
        <mxCell id="ad717CbtWpxfhqgO-wQq-4" value="" style="sketch=0;aspect=fixed;pointerEvents=1;shadow=0;dashed=0;html=1;strokeColor=none;labelPosition=center;verticalLabelPosition=bottom;verticalAlign=top;align=center;fillColor=#505050;shape=mxgraph.mscae.enterprise.server_generic" vertex="1" parent="1">
          <mxGeometry x="680" y="200" width="144" height="300" as="geometry" />
        </mxCell>
        <mxCell id="ad717CbtWpxfhqgO-wQq-5" value="" style="shape=image;verticalLabelPosition=bottom;labelBackgroundColor=default;verticalAlign=top;aspect=fixed;imageAspect=0;image=data:image/png,iVBORw0KGgoAAAANSUhEUgAAAG0AAABuCAYAAAAtbJ34AAAgAElEQVR4nO2dZ4xlx5Xff6fq3pc69/R0T0/gZHLEoGEYckVRgZREiVpBsiUvhN01ZNjG2us1DDjsBwM2YH/3JwP+YjgAC8Nw3l3Z8q7WWK1lydYqUBwGBYphhqQm55mO7717q44/VN3wupvkUJoOI83B9PTr926oV6fqnP+JV158/nX15KAgCHVS1iDx1cs1j1/zrJukn+fcXw6yWBJcj8Q44CanbF3n1b/7Ib/s5C2JSLFfdBU/ZPUp67wX1rrjHaqTmITEiwuMEEFWcOSOsNp6lJFhiDvN3OHQbUEiHiP688OHO7RxJIARtHi5ycO5QzdDooJRzC2A6reGpPZb0IG/ie+9l+v8IpIgxfYStgLTKtIS0db/X41vtWRu/Uc1/AS6WVavRfWrbg0SIFEF2SJjKiZXxIa/wj+0YKIIRhURg9dVZ5V/i5GKeWveqTr23UlWvN58WzLZ7AGsoriCnAfEINaG91RBPVb7aGRcMefhVzG5HlXBqcdIECRSqO2ov42xeO8Gbrua9SCRQSIW1ULvK5sqlXSrMU0cjoS+U+YWu7z604ucu7rIwuIyzVaDnTPbeOjgNKNNQDMUwWOjjM/DREuDhb7yxtnLXJtbAoTtYx0O7pik2TSAx/kMI2ZAhBpj8KpxdypGBBHFuTyK4HDuViB58bmXVGTzdFqhkQTFpw2+/vIlvvLcKU7cyFnIFJIUL4AacjxHx5S/98z7OTABVjKcGlDBqqOrDf73K1f4L985ydmuoevDXmmnll2tPl86tpOnjuzGGofHgSpODW9dnOf7b17ltRuW6wtLpCrMjiccmW3z4F1T7BwZAjK8gGqhI/Xn0pY/K4mWTNvwe5dUMQ2uaZN/8u+/xY+7I3RJ8UZQ1ydFycTQsx1Gtc/u7C3+2W99lul0CfE9MIbMdPiXXznOn7zRpd+eIvfgvKOHoCahQcZI7wpfuGeE3/70Q0h/gQu9Jv/8y9/iuYtdXGsbatqoeJwPI0qzBbbrPJ95aC9f+PARhtwCEjWsxp1XmUwbQ7KVxKPGyb3uUvq2Qcf1+Ni9u3ns7hnGOwmXF3P+9dde5K2FBmdkO//h6y/wdz79EC3NyOww/+qrz/GNU568MUmSLfLZR/ZzdN8US5ny1eMneO5cj2utWf705FX2v3iWJ+7fyx8/+yI/upYw196D2AZ4hzFKpg7nIW2MImaM//qDq5y88j3+7mceYlSWg5Ekm4cqtwzTAFQT+ho01GzH8+sfPMQOuUqDRfKRFpO/epR//PvHWaTN905c4tx8xq52kx+fW+Zrry9wI51mOsn5nc98gIdnE4Z1EY9w7K4H+crLl/m9b57gkhnlvz97gqP3HebeI4f57vmfcP26kmnGdNvzD774cdqScWW+x/HXz/HNl05y1Y7xzdPX2f3d1/krHzqE9b04XjZ4nwUyyFaw0MJXtxIMfVGh4fq03QItXSLxXTr5PO+fgIf3jJOgzOfChbllFmnxH//sORaSbajL+AvH9vLBWWE8u0LTLdF2C0z3z/HrR2d4dM8wKoYzywnX5uZ5344Wv/uXP8k2u0RDPCMsczS9yDFzmk9MzvM7T+zlbz1zDJsv0m9M8L9evsr5RSVzhSGyOfZS8BNvqp1WU+uagWhYSQiJCZjN+SDLU4GOQGItGsd8cb7PK5e6eE3YM2L59H1TJPkc4HHRyE58Tmf5Mo/uHEW6S/SlzdJyjyE3z3h2iaF8HqsGQ0oiQmKgTZdtvTN8bF+Tp+7eTqJwPm9x/MRF1DZQ9WGUm7Dit4TDUSSodycJXhxOeigZqh7vFUxCzzS4sNDj5bfOIqqk4tg+OcHpi/Ms2FGc9Hnk0E5Gmg5DFr6ZtTixiLVYHENWwULPCEu9PlYsRg1gcGJwWBzhd64CAsN+jmce3IuRDCeGn15aBNsElbjJNt4M2BI6zXmP2JSLV66R5xZxHiM5N65cp5UukmH48ekb/MELV7mQj5BJxscf2M/kcMK35uZZTIew2RJHplvYfDnwC1Cfg4BHyQzMLS1hrUVVSRsNvFbO8oAIHVYU8R4jQQQmPmd6eAjjPd5YbvRyQJDC4N8E2hJME0Bswte+9xwLrkXXtnkzc/yj33+eRB3LNJinRS8ZpWuE/W3PX3rifppuieV+P5jYKowPCajBkJQTqt4BiiYpJ85dQk1CkvUYHuqgLEcA7zFaeDYtYixeM0DwknDu+iKLWEQtQ+0UUUdYCrIqT2YjKBHdXJVW+BRzlzOzfRvZG9fxtkPfdrhBIxrVhkyVLOtx/1SDf/iFj7AnvU7qM0Y6QyA9vAp9J9H15MgJ+sYi9Lzl/ELOD88tYxhiV2uJnaMNxC2DMSgGLwIk5DhUFTB4PF2b8PXnfwAmpZc7doyNBH0WxaNuAn7cEjvNoBh1fPSRo/ynH30X5wxplnF453bo9Wg2DFOTwzxwaJYHZ5tM+Ws03DIqhh2TI6T5GaSR8PwrP+Ujuw/isx7WBDeUquBbY/y3P3qOazqM05yPPXSQjmQoDu89qh5VsOpJ8Fh1eCyatHj5/BLfOXkF09zJRMtz7N59eDe/qV72TWdaYaIaVVLJaJBhvGW65fnbn/0A49IltR5LTsMt0PKXaWhw9maq7JkaZkLmmUum+L+vXuLY3hE+dHAa/DIOZUka/NkPTvONN7v0zDb2DitPHT1AqnNx3jUgVlFSYzBiUdvk/ILyvTcu8YfPnmC5sR3T7/Kph/Yw2xHSrIw7sOEGk2wBphVfWUWBHIND1dOiy4S7wHa5gXFEx5EPACB6IwzK9rbw1AN38eUfzXFJtvEv/vTHnL+0wJE9k+TAN156la+fnONac5Z2tsxvPHGEKbOE9f2olUL0wAPX+8q/+z8/4vqVy7x6pcvZfoesMY7Pejyye4TffGw/rewiqQhuE43bTWcaVMEOiapdRVB1WDISzTAiOIK+8pqggFeHEWWIZb745DGeffNrvLboOZ3s5Peev0zrOyfxGHqtSZYas0hvns8/coCPHRxnKL+CiOJV8KqICE5zLuTwn3+yBI0puokB40mXrvLRu6f57U8dY3t+jkRyvG6upZQUDlBkcwzFOikw0Wly7vIcI0M2GNliSpQW9kMwaq2EzxI8E9kl/ukXP8i/+fNTPHviDDdcg8VkJsjdXJlIcr749KM8c9jQzi9jNEfFoGKwknD4wF289fpVcixeE6zJmWw3OLpvmk8euZ9HZxLa2VlSk+FJI/iox9U2Tr85UeT54y+o3QIhdUXI0iG+ecrx3Z+8wWMHpvnQ/jE6boEqkdZjMHiqKbMEIJObhHnb4cSNFj8+c5mL13uYtMXMxBAP7Ghzd3uOJkvgPZ5iISiZbXPOj/H/Tl7D0WRiqMn2EcNsG6ZtjyHt4vI+aqJoVlu7+8YzzUNgWljRq5NVN5oMsGCGyWyD1Pdo+i6JBmO2PrQi+hd+JLLAAZa+dFBrccbiPBif0dQeiWaAQ7H4ela1GHIsuWmQ+gZGHY4elgxDHv18Bi9gNQ1xuE301no8SYrFF8kYm0jBj6e03TIt7YNkGHFxXAWbBk3ZKsHAlBGuhs6jueA8WGNIYrKIQ/BiAQseRDTgGe+weFI8+G4wP8SX9/NxMRsMkG/UdLwtpZoWQGQzAgyDpIAXwRDsJtCYl1GQDBw7+G4BY4jaLzibQfHRaaxC8R8m2liqlAlp4n0l8MqFUrvnJrmsVpMn0S2S9wArSqV0dSlV7dOBd2Tgrzqyk2r+qTNYa8fXjy5+r72AtwLbcnFbw8t/h94LyZ26i9uPBLOpWT136D2TCkUi/x3G3U50R6fdhnSHabch3WHa7UZqflmYFvJApPSsBKosNqkleW+98qYBEv1lYRoED4sOsENRVOIPIdJ9K7qhrC/p1oinrT8piMGLxRqDlG6tnDI/klCs54oyKraCc29t+qVgmiL0nOONC5e5tuSw3kYfpwOjeHW0Usv9u6dJEykde1uRYWylAoz1JCeGqy7lG6d7fPtsTuZTTHQme/FY+uxoKb8722QmEQyujNptRTGZQOXU3ux42rqRKqmx9PIGS7nHmRT1GgPbHtQw2s9JBRpk+Jg9shVJMDFt3hAK936BKaSeh1ptLTOKQ68AYxK8hkxHtyoqvbXICBhRKbLIfoGpAPQSQUaodgkxaBMDnBV6DAizCIRuLYpqWENkduuN7xZTxIJqQmGHxgBp/CgU3iuDHRG23qSoNSQUvRu2lAwfDGtW/7PKQK7nj4RPVmqjaJkJgUnln0LZYEZ9hP+FGF1rHFuDcslDLv/WG9wa2bsCikc0IbSdqBf0BU6oKiqewtETjgkKW1Sx5Jj+PJI0wGvoZgBYdaTSx2UO07C4eP/NKIR/Nwqp61uSgj4R9RhjcV5LIFHoJjUGFQGXkYjiSTESMq2KFAqNmchWHGNW+cQDezh670GMAXyVvShAw/eZHPJ4uoAp0km23HKGLWqnhdx+sEbouZzTV+dDcaAY0AyjBhdbQ4y3hfFOg3NXbuDVIrGrDyhOBFUYTj0z4022+yU6uZLQx0WmGQm13qiQ+EZUe0moitncaXhb2pJM8zHPsIvlzYWc//nDq5zvG7w26GtO4iV2Y8t5dP92Hjm4na/88BynF4W+SQPE8nnIR3YZ982O8Pljs/zxq2/ywtklvKRkGsStAcQr0w3l73/iEKNNXwhbtuI+W9GSYisNMpb3CWAbXF5ucLbfRAnlvUYD4lVnmHMpkja4nKWc6TdCMxiK3noCmnG9bzEm5Ube4XwfMkmDANYgRq0qQg8fcyGLnRpoq8xJoFBFtwWp6omjeIRMLJk0UKkDDMB4VAIKdJKQSyN47DX+hE9wURd6DJ6EHDtwJxFFYxO1epDmvcGQYtGvf/+srR2a0ZBYWiSb1nP4y2kpN0Lwcnj1kdmhwFaLlHfCwRqvOwAyfs45DlctxOr605ZmWl1AWTEDkxLsLVO+owhosL5CM7JwdOiGLrEoPoY5TVF6W7vBzzzbMU4nRbe89U/+3UTxWDeSVxrMFYXdErtRaYTxtQkuxGAMaQZtJh6JTAp6K04oiohHhHJHFn784i7FMMLUV2u6yk5e+S0ETRpcWQ5nTLYFXM7qVXDrxOWmM01r3omQLu8Bg41Rh4ZC4nskeYIVQ66CRLhO3sc4hzgfq2IkrHjfCzaegrp+AJOqeO0ifgGjTUQr34n4DGtdMCO84o3FiaHqXRCYb4gmAqHoMehSy+Wu4U9eOEXmHB8+MsOBbS2Md9EbX680uDW0iUwrDGhKkWIweAmMdCiGnImm5SP37eIGzRgyaWIxiHcY9RwYEaaSPk+9bwfvy6LBrTb45zTU02xPlFFVHj+4k30zDkXJNRToaQx2DNNj2CpiIkLTcFyBL6RmCKiG0I0Xw6I2ePbUNb5+8jpdJ1xaUj738B4OTqSkFL0iPbdS28lLx1+qKh42RI0GpZ0YyD0sdnOMSTAxVwPAqUW9YzzxiEk53zNI2kTog1hAQgjFCMO+x4RRLuYpmUlIyEqEUnjxbd5jV7PH2XwYL02szyiN78gMyXvs7yhzXVhyeakXC3dZptBXmBxuYVxogZGblNfmlX/7zRP84JIhlyZNWebBSfiNJ+7m0IQl1W5lftwS2hQ3VmhrtJgbTl7t8q2XT3M9T+hpcOiiHqcG0T5PHp5hz9QwX3n2J1zLUtTEKk4fCnnFZzy2b5JHD+zgf3znFd5aVDwO8YIJnmDU5eyfGuIvPrqfr75whlcuLuB8DL6oBp3pc8abOX/zyffzvZNX+fZrp8lIEQze+4B31NFppvyNjxxi11ADo55cLKev3OD0tZxcxsiw9L3wwvlrTDz3Bl/8wCF2DSeg2S2dwQ1nWiHlbZrSNfDGvOGia9IXE91UHq+COsN9eZOZxginFi0XXBtXIEHvceqxPuFA1iZLhzm13OD15QY5HiMWNNS5mbzPUL+FT4e5nLV4dcGRqcWLieLWY1G2+S4uHeKy6/LKfIeeNMEkMYbtAEe778hNI3wPI/Q04fTVHktZghoJ+18MvXSM75+eY+YnZ/nsQ7sZNyEfRUSCrVnEg0oqoNTN0SYwLUJvn4EY+gTD2UnYHV6DvYVplgo880ImCRAyqbwESyxE2w0Gjc3IUhyh6lMkIM/EhFiZVUdoXNYkj8X3IU4d0aN4Eh9AkKeJN61Ym62E/siWpjgagNHQFq+XC5du9OhrjHyLwytkYrniW3z7xGUO7hjjV/aOYvLFwH5VEmLsrmCTvDfxuWl2mhBiV54i7B/jXVrkJwYbTAkwv1iFBeardE5En8XvFfdAwjWLIG9VmKtYwCokEZEWq92UuoyIQhWrSqom9tAKng/nhcVujjNJADCqIOEb5dLg7CJ8/81rXMybLPiULhYfy6WLuB6i1UK+Sdo09CjVqCl2UNAwBNheGKlFqW00YqFaaSF+Rs1QjsZz7BC3chpUFQ3JIKhGH0o8TsTEz2P5sK0JLI011+pRExBu0L1KX5Ucj/ceq2F0qjmqwpJvcPync6i8xphZopN4Jtopu7aPsGNyjOFGgvUZSXGn8ou8MwM3nGlFK4iiLq5gmyf0yhekjG0WQzci4CUwSAcZFOC7lm4uLwVTlfqRDqJ3pDLFi/uXJFEgSuxXoiaaJNV4FUHFB8ATMFXZRdwTpIKPzc66tsGbfc+p1xcw5DTUMZL0mWjOcWjiAo/sneLI9Cg7hptYycm5ufZoCcXXEH9Lk3uq2HNYzRgb7Zv4TcWgPsf6DMl7iEnD8d5jxKMux3kJqBLFeENuQksGfAaqiM/JVOiSkGmOj01dvO9HkQaSZ0CDHi1yhBwf0ubweM3DIvHB+F5QS1eUPjkZDiVHRDECgiHHkfnY+VVDp4TUJohWPSCN5qXRHto3Caop6lO6KDdyz5kuvDKf8+fnLnDvtqt89OA2Htszxli76p/wdoxT4k6T4q9bSMEai19YLJmHxBQK2OM1Y7xjOHZwknnfxIvFKXifx7YQsG/cMmEzPnhgG3OujceTGzAaLLAEODSRMsoyTxzYxqF+M/TNVwdxxxnvmO0Iw5JzdNcII0Mt0AJghIi498qw7TNiMx7Y3oIjM/HRcqGtYKE728Yx2vBoRImI0LAJiWbkscNI5TauOaeLGSnEJ9CnyZme5cLpRV4+8wpn7tnGlz50hMTkNT/p2qxbV/EYos8WTMp8LyOxQtOGr2XUs6NtefreWVwchjEpYS+F7jht1yUh45n7ZnAmBYnNjCNYMWJoaI+mdHn63ilyaWBitlWdKdb3GdY5Ht/X4VFSjEr5SJNgOxvwfUZkgZGdHY7umqDYOR7F+6g71TPKHIqw5IXTl25wfb4br1MX7avgUJWvXABGL+ReENtkoXudsampsEi8L/X4WowbiKe9FzvhpkkMuYdLXccfvXiWTCWIJA1yv/RGKDh14OMOleCFMBqQVU4d9bmg3wDBRnTnUEnwAqKG3PUpXMDBHoNEc/pYTA1thmkpImgh8SdXE8BKYVEKZS/lYDoEU8WJ5dKS4dScJ5cGrhSKdSRYzWgJNEojAhIDQ36ZJ+8/xGN370OYo6qBfzsBKSQF/L3lDIs38AhzueH5Sxk9muQa8i+8JBGuh9WnkkTPe4xOxW7caOXpD4ZAK7wXJ1YV8D486SkAdjT2rwo+zOAj1Nge0GqUWEWDmcJmUwWawbvvCxQbWRBdh+rBaLN86kymEvNQwu4oSqmq8EzxO7jejAbXmSOMp+OXeGLfJL/2K0fYZnsQ85vfCYg48STEm6rcyoTV6tYigtiEHpaupkitG0+IRUp0XxFb0sbBKUGERUiuceaUNHZDre6kJggMjc/n8kVkOvogvUpwjQF5hNTFM2OKrkBBB4P3IZSjWn+WTPD+B5PAhp1qCp3ly3LF6AJnrQ7iJn6We0V9n8mkzyfuneXzj+xld6tHqr2bQo5OlcREeX1rt1oVVRSIrWmrWJVKlXRdTp6sHEJlWKPgtVgEHpUiSW4wMcBHmeeLdASVeF2l6NW8UqasnCSp75i6sa4Sr1cgw5iZXXyslQkRtenAHbwEv6nJu+wfs3z+4UM8eWiKiWSZxHdv2h+SYmPj6UIM3OSJN0OFNVQEL60B5zUCAB9FSJFXX4Q5ZfD8Ygf6auWGZ6NVx5SapJYlXVR2QmQgoQF1ecyKCY4Xo1hswZ3mKwM9or4AbIJhXaYsCFV6eTzW4xDC06ayvI8RpYWyY3SIh/ft4OkjU9w96hniGuoULxr6gt0EA4xaErEmgIB1otKLEeFzsdaVQjxC9cyLeA7l9MVJr3vbCo9g0fdKS7FYJ6H+OMriWWlSgE/KJ2vWoHnACVoClUGGFVcqvlcYZIEKS0EqYLCIKh3j2Ds7yt7JBvfsGOXIzCi7Rx3DmmHVEWMMgMHcpLhLBRKnRf/CWxXviYOvIaiWhRYOJSG6c8l1teQv/I71v8PFpNwxUJVlaXFO/DswJO7xwi8ZGVHcy0jtuhGAaH3FrDGO+ljK3xEJFqnlhoBcHTkOz5jp87mHD/LM/TvZnnZpah/cMlZd7RkAYQzvJardx5Gs34McChEkNIww1rKczRxV7cAa/ba1ttviNgxuo1WXrc6pjX918cXgxctri0KtD3F1yCBjqrfXniDVotOAImrL2oGO9nl4R4dPvm+KXWaONFuO/SXlba9188pJMRVouLU7rU6pEcYaBqvBu+bWcOa+0wjW3H3lG4Mvgw9SB3Zmta/eeYEW4nDwfqvHoko04Ktjih2bqmfa9vncscPsbPRJtB/MgXe5982TwVQKfH2YpgpWlOmRFkZDtcvbluu9yxBWM0xrE1fhyFUIsRCZKz6ri9bqvRroWQOeFQ8zqo6XaBcGpDkkfZ55+AD3bEtp+i5EtFsZFj8/bUg8LcGze3KUTkxTLHIR6+QrVBKARYTrfsVWqk/j2it3NWMHRG7tdd3MCOJYV1xz5WKugXmp2CAYBEPqHQ/fNcHTD+xmSBfLtrrmFudCmmow65NkKRKctrsnhphoBkNefLUrQk59kcZdob2grFZvveKtMjV85ecrOLkWwyjvzoA4LIFLceYKhFLo2XhS1C6C8w6rnsPbmvzaB/azTeZIJYcYQL3VUmxDdpqgjLdTZsaaGM0H1u/qr7P2kFR1VTF/setWIrvaSWtfy1e7bKUorTDv25xLEWEP3yL4QzzbWxlfeGwXB0aWsL5XZjivB20Q0xwt2+fw9DBNVVyMp1VJ3Wt/Pa3thsEPdOCod6M6KBk4fC2m6hrHDZxSlNYH2Gp9xkza4zcf38vjO6Hj+iSmuPS6wPINYpp6bL7MkekhZkZSlLxU+FrTOe80UStRYvXZwJHVy0IEv4d5uxm3ucbnljqURHN2pn2+9MRBPnqwQ4c+iTHryjDYAKYFGK5YPDs6yvtnR2i4LH7xwn9fAY4COnsGQUGly6D0S76NKVC2hl85eUEVlWW9g8zXFfMcRlU8jy08AzSUFHuFhmbs7WT81ScP8/HDw4zSxSK4lZb6OtAG7LQwE4LQ0i7H9o2zfzwliSltBokxrhqiWwHlVzmTdfWk1z+TQT7VXmvFsFqYQIvm/eU9K399qPRWrPrSdOiQc2Tc8NeeupfH72rR0QVCakERtFm/XQYblkIn8WaenR3Hh++ZYcz0sQXEVj9gAoQNUvNRFtBFq2sNbsPKEKj886vpndRVdbnqUyG4xiT6JUUDw45Op/z1j9/Lw7OWIV0s76i87VK6pbRBPV9Cnr4XpaU9Htw1xH2zQzS1C/jQkaCwOGr+xnBm5bHR2par5njAXfuOSmzAxitPr/yMJTKsRQ8KJhigrV2e2DvMbz19L0fG+7T9QoiQSBHu9TFHZB1JDMnqZirrREp8botj3Czyifv3cHnuNV67ltGTJsG3XlTSvMN6HXD4rvyg1tCFQWCxSn+VvwePKVMgiJlfgHE5Ew3lUw/exa++b5zx9AZNDennwd1eRPfWcyaLEBTID4//UP06GdbvRD3b4qVLyh8+e4q3FoUuNpoBGajBU1S9DLjfceXLOD2+Eq0rJWadaZVtFYFP4TvUGB0Iyg2RpPSO4B0dk3PvzBCfPjrLI7MpwywPLIyNoQrcJGpJNutJM428x31Tw2SP3MWXn3uTny5CHx/9eEBd5K14p75TyrqxlZ75useDyPwQswGCrVWPDgSGhfo2g8f4HvsnGzx5z24+dGiSHY0uiV+GDWdY/BKRcpSklrK7oWTE0PE9HtreYvjxu/mD597ktStdeqZJGeAMmj0M20eIuQIPDprnldlQHlGAFxlktpaR6dhJ1VgsgmRLzDRznnz/Hj56ZIbZdp+WLpL4vOxbsDkU7pybHHnh+EtaeCY2ckAaM5RQyE2T81mLb7x6hW+fOMuFXqhuCYasH7Ch6ubUQF5GyeUiLCOlXQYSU7frzHSlK0p8jsmX2T+W8sF7dvL44R3saOW0dIlEQgJfsV42fpeVIwYgF0VePP6iFj73jWXa4Nd30mCeIU5e6/HtE5f4wZnrXOpCLiliYpqCr4VPY2S6tARUQ5ZWIQ+J6QyFelJiLorHeMBntIxnW9tyaGaEB/ZO8cBMi21toaMxDlaPMcThbl6LxSglBOSl4y8qm8C0YhjBeREMbAUyabBIh9ev9Th+6hovn7nOlfkuS07xYhFJ8GIjI8xg+KaA/2pqO1PBh7YvRjPa1jM51Gb35BB375zg8Mwwu0cMI6ZHyy2+65g3b6cVpJvPtAocQJUJL+SkLNo255fgzYuLvH7hOmeuzXF5oc9ipmTe4Ehjrkld7IXUNqtKIkozgZFGwvRYi9nxNgemx9m1bZjptjBswsPQcT3CM7Q3eAJ+JtpEptWxYaGZrAo+FuWVsM+mZNqgqylLpFzLlcvzPa4s9LjR9SxmSs+5Mg0gSSxDNmG8nTI5ZJnoJIy3LMM2oy05qWYkGhstaUgSchLdVZuHMt4DbamHKUSDqea38EbAO1JdJpEuwwhTqXJ4AmQinOUlwUkj4MiYpSR4RCEogwMAAACvSURBVLNg83mPFQXfw0iKElpRhHLb2HhapeyscDtQybSNHrKs8brKGpZy5Vd6L7qTykhw+NtqvuYOGQhAoyCN0jCXKI5jcKj0Md4utIV22iCtbcKu9By+/ZHv9W63E23phmZ3aG26w7TbjELaeS30cYduB5L6TrvDtNuD5I54vB3pDtNuM6qKPu7QbUWJoWr+dUevbUWq+VVDDgSJapVttF49Du7Qz0NVdploqD3//7BQ3Z8HHJbLAAAAAElFTkSuQmCC;" vertex="1" parent="1">
          <mxGeometry x="527.32" y="410" width="69.36" height="70" as="geometry" />
        </mxCell>
        <mxCell id="ad717CbtWpxfhqgO-wQq-7" value="" style="shape=image;verticalLabelPosition=bottom;labelBackgroundColor=default;verticalAlign=top;aspect=fixed;imageAspect=0;image=data:image/png,iVBORw0KGgoAAAANSUhEUgAAAG0AAABuCAYAAAAtbJ34AAAgAElEQVR4nO2dZ4xlx5Xff6fq3pc69/R0T0/gZHLEoGEYckVRgZREiVpBsiUvhN01ZNjG2us1DDjsBwM2YH/3JwP+YjgAC8Nw3l3Z8q7WWK1lydYqUBwGBYphhqQm55mO7717q44/VN3wupvkUJoOI83B9PTr926oV6fqnP+JV158/nX15KAgCHVS1iDx1cs1j1/zrJukn+fcXw6yWBJcj8Q44CanbF3n1b/7Ib/s5C2JSLFfdBU/ZPUp67wX1rrjHaqTmITEiwuMEEFWcOSOsNp6lJFhiDvN3OHQbUEiHiP688OHO7RxJIARtHi5ycO5QzdDooJRzC2A6reGpPZb0IG/ie+9l+v8IpIgxfYStgLTKtIS0db/X41vtWRu/Uc1/AS6WVavRfWrbg0SIFEF2SJjKiZXxIa/wj+0YKIIRhURg9dVZ5V/i5GKeWveqTr23UlWvN58WzLZ7AGsoriCnAfEINaG91RBPVb7aGRcMefhVzG5HlXBqcdIECRSqO2ov42xeO8Gbrua9SCRQSIW1ULvK5sqlXSrMU0cjoS+U+YWu7z604ucu7rIwuIyzVaDnTPbeOjgNKNNQDMUwWOjjM/DREuDhb7yxtnLXJtbAoTtYx0O7pik2TSAx/kMI2ZAhBpj8KpxdypGBBHFuTyK4HDuViB58bmXVGTzdFqhkQTFpw2+/vIlvvLcKU7cyFnIFJIUL4AacjxHx5S/98z7OTABVjKcGlDBqqOrDf73K1f4L985ydmuoevDXmmnll2tPl86tpOnjuzGGofHgSpODW9dnOf7b17ltRuW6wtLpCrMjiccmW3z4F1T7BwZAjK8gGqhI/Xn0pY/K4mWTNvwe5dUMQ2uaZN/8u+/xY+7I3RJ8UZQ1ydFycTQsx1Gtc/u7C3+2W99lul0CfE9MIbMdPiXXznOn7zRpd+eIvfgvKOHoCahQcZI7wpfuGeE3/70Q0h/gQu9Jv/8y9/iuYtdXGsbatqoeJwPI0qzBbbrPJ95aC9f+PARhtwCEjWsxp1XmUwbQ7KVxKPGyb3uUvq2Qcf1+Ni9u3ns7hnGOwmXF3P+9dde5K2FBmdkO//h6y/wdz79EC3NyOww/+qrz/GNU568MUmSLfLZR/ZzdN8US5ny1eMneO5cj2utWf705FX2v3iWJ+7fyx8/+yI/upYw196D2AZ4hzFKpg7nIW2MImaM//qDq5y88j3+7mceYlSWg5Ekm4cqtwzTAFQT+ho01GzH8+sfPMQOuUqDRfKRFpO/epR//PvHWaTN905c4tx8xq52kx+fW+Zrry9wI51mOsn5nc98gIdnE4Z1EY9w7K4H+crLl/m9b57gkhnlvz97gqP3HebeI4f57vmfcP26kmnGdNvzD774cdqScWW+x/HXz/HNl05y1Y7xzdPX2f3d1/krHzqE9b04XjZ4nwUyyFaw0MJXtxIMfVGh4fq03QItXSLxXTr5PO+fgIf3jJOgzOfChbllFmnxH//sORaSbajL+AvH9vLBWWE8u0LTLdF2C0z3z/HrR2d4dM8wKoYzywnX5uZ5344Wv/uXP8k2u0RDPCMsczS9yDFzmk9MzvM7T+zlbz1zDJsv0m9M8L9evsr5RSVzhSGyOfZS8BNvqp1WU+uagWhYSQiJCZjN+SDLU4GOQGItGsd8cb7PK5e6eE3YM2L59H1TJPkc4HHRyE58Tmf5Mo/uHEW6S/SlzdJyjyE3z3h2iaF8HqsGQ0oiQmKgTZdtvTN8bF+Tp+7eTqJwPm9x/MRF1DZQ9WGUm7Dit4TDUSSodycJXhxOeigZqh7vFUxCzzS4sNDj5bfOIqqk4tg+OcHpi/Ms2FGc9Hnk0E5Gmg5DFr6ZtTixiLVYHENWwULPCEu9PlYsRg1gcGJwWBzhd64CAsN+jmce3IuRDCeGn15aBNsElbjJNt4M2BI6zXmP2JSLV66R5xZxHiM5N65cp5UukmH48ekb/MELV7mQj5BJxscf2M/kcMK35uZZTIew2RJHplvYfDnwC1Cfg4BHyQzMLS1hrUVVSRsNvFbO8oAIHVYU8R4jQQQmPmd6eAjjPd5YbvRyQJDC4N8E2hJME0Bswte+9xwLrkXXtnkzc/yj33+eRB3LNJinRS8ZpWuE/W3PX3rifppuieV+P5jYKowPCajBkJQTqt4BiiYpJ85dQk1CkvUYHuqgLEcA7zFaeDYtYixeM0DwknDu+iKLWEQtQ+0UUUdYCrIqT2YjKBHdXJVW+BRzlzOzfRvZG9fxtkPfdrhBIxrVhkyVLOtx/1SDf/iFj7AnvU7qM0Y6QyA9vAp9J9H15MgJ+sYi9Lzl/ELOD88tYxhiV2uJnaMNxC2DMSgGLwIk5DhUFTB4PF2b8PXnfwAmpZc7doyNBH0WxaNuAn7cEjvNoBh1fPSRo/ynH30X5wxplnF453bo9Wg2DFOTwzxwaJYHZ5tM+Ws03DIqhh2TI6T5GaSR8PwrP+Ujuw/isx7WBDeUquBbY/y3P3qOazqM05yPPXSQjmQoDu89qh5VsOpJ8Fh1eCyatHj5/BLfOXkF09zJRMtz7N59eDe/qV72TWdaYaIaVVLJaJBhvGW65fnbn/0A49IltR5LTsMt0PKXaWhw9maq7JkaZkLmmUum+L+vXuLY3hE+dHAa/DIOZUka/NkPTvONN7v0zDb2DitPHT1AqnNx3jUgVlFSYzBiUdvk/ILyvTcu8YfPnmC5sR3T7/Kph/Yw2xHSrIw7sOEGk2wBphVfWUWBHIND1dOiy4S7wHa5gXFEx5EPACB6IwzK9rbw1AN38eUfzXFJtvEv/vTHnL+0wJE9k+TAN156la+fnONac5Z2tsxvPHGEKbOE9f2olUL0wAPX+8q/+z8/4vqVy7x6pcvZfoesMY7Pejyye4TffGw/rewiqQhuE43bTWcaVMEOiapdRVB1WDISzTAiOIK+8pqggFeHEWWIZb745DGeffNrvLboOZ3s5Peev0zrOyfxGHqtSZYas0hvns8/coCPHRxnKL+CiOJV8KqICE5zLuTwn3+yBI0puokB40mXrvLRu6f57U8dY3t+jkRyvG6upZQUDlBkcwzFOikw0Wly7vIcI0M2GNliSpQW9kMwaq2EzxI8E9kl/ukXP8i/+fNTPHviDDdcg8VkJsjdXJlIcr749KM8c9jQzi9jNEfFoGKwknD4wF289fpVcixeE6zJmWw3OLpvmk8euZ9HZxLa2VlSk+FJI/iox9U2Tr85UeT54y+o3QIhdUXI0iG+ecrx3Z+8wWMHpvnQ/jE6boEqkdZjMHiqKbMEIJObhHnb4cSNFj8+c5mL13uYtMXMxBAP7Ghzd3uOJkvgPZ5iISiZbXPOj/H/Tl7D0WRiqMn2EcNsG6ZtjyHt4vI+aqJoVlu7+8YzzUNgWljRq5NVN5oMsGCGyWyD1Pdo+i6JBmO2PrQi+hd+JLLAAZa+dFBrccbiPBif0dQeiWaAQ7H4ela1GHIsuWmQ+gZGHY4elgxDHv18Bi9gNQ1xuE301no8SYrFF8kYm0jBj6e03TIt7YNkGHFxXAWbBk3ZKsHAlBGuhs6jueA8WGNIYrKIQ/BiAQseRDTgGe+weFI8+G4wP8SX9/NxMRsMkG/UdLwtpZoWQGQzAgyDpIAXwRDsJtCYl1GQDBw7+G4BY4jaLzibQfHRaaxC8R8m2liqlAlp4n0l8MqFUrvnJrmsVpMn0S2S9wArSqV0dSlV7dOBd2Tgrzqyk2r+qTNYa8fXjy5+r72AtwLbcnFbw8t/h94LyZ26i9uPBLOpWT136D2TCkUi/x3G3U50R6fdhnSHabch3WHa7UZqflmYFvJApPSsBKosNqkleW+98qYBEv1lYRoED4sOsENRVOIPIdJ9K7qhrC/p1oinrT8piMGLxRqDlG6tnDI/klCs54oyKraCc29t+qVgmiL0nOONC5e5tuSw3kYfpwOjeHW0Usv9u6dJEykde1uRYWylAoz1JCeGqy7lG6d7fPtsTuZTTHQme/FY+uxoKb8722QmEQyujNptRTGZQOXU3ux42rqRKqmx9PIGS7nHmRT1GgPbHtQw2s9JBRpk+Jg9shVJMDFt3hAK936BKaSeh1ptLTOKQ68AYxK8hkxHtyoqvbXICBhRKbLIfoGpAPQSQUaodgkxaBMDnBV6DAizCIRuLYpqWENkduuN7xZTxIJqQmGHxgBp/CgU3iuDHRG23qSoNSQUvRu2lAwfDGtW/7PKQK7nj4RPVmqjaJkJgUnln0LZYEZ9hP+FGF1rHFuDcslDLv/WG9wa2bsCikc0IbSdqBf0BU6oKiqewtETjgkKW1Sx5Jj+PJI0wGvoZgBYdaTSx2UO07C4eP/NKIR/Nwqp61uSgj4R9RhjcV5LIFHoJjUGFQGXkYjiSTESMq2KFAqNmchWHGNW+cQDezh670GMAXyVvShAw/eZHPJ4uoAp0km23HKGLWqnhdx+sEbouZzTV+dDcaAY0AyjBhdbQ4y3hfFOg3NXbuDVIrGrDyhOBFUYTj0z4022+yU6uZLQx0WmGQm13qiQ+EZUe0moitncaXhb2pJM8zHPsIvlzYWc//nDq5zvG7w26GtO4iV2Y8t5dP92Hjm4na/88BynF4W+SQPE8nnIR3YZ982O8Pljs/zxq2/ywtklvKRkGsStAcQr0w3l73/iEKNNXwhbtuI+W9GSYisNMpb3CWAbXF5ucLbfRAnlvUYD4lVnmHMpkja4nKWc6TdCMxiK3noCmnG9bzEm5Ube4XwfMkmDANYgRq0qQg8fcyGLnRpoq8xJoFBFtwWp6omjeIRMLJk0UKkDDMB4VAIKdJKQSyN47DX+hE9wURd6DJ6EHDtwJxFFYxO1epDmvcGQYtGvf/+srR2a0ZBYWiSb1nP4y2kpN0Lwcnj1kdmhwFaLlHfCwRqvOwAyfs45DlctxOr605ZmWl1AWTEDkxLsLVO+owhosL5CM7JwdOiGLrEoPoY5TVF6W7vBzzzbMU4nRbe89U/+3UTxWDeSVxrMFYXdErtRaYTxtQkuxGAMaQZtJh6JTAp6K04oiohHhHJHFn784i7FMMLUV2u6yk5e+S0ETRpcWQ5nTLYFXM7qVXDrxOWmM01r3omQLu8Bg41Rh4ZC4nskeYIVQ66CRLhO3sc4hzgfq2IkrHjfCzaegrp+AJOqeO0ifgGjTUQr34n4DGtdMCO84o3FiaHqXRCYb4gmAqHoMehSy+Wu4U9eOEXmHB8+MsOBbS2Md9EbX680uDW0iUwrDGhKkWIweAmMdCiGnImm5SP37eIGzRgyaWIxiHcY9RwYEaaSPk+9bwfvy6LBrTb45zTU02xPlFFVHj+4k30zDkXJNRToaQx2DNNj2CpiIkLTcFyBL6RmCKiG0I0Xw6I2ePbUNb5+8jpdJ1xaUj738B4OTqSkFL0iPbdS28lLx1+qKh42RI0GpZ0YyD0sdnOMSTAxVwPAqUW9YzzxiEk53zNI2kTog1hAQgjFCMO+x4RRLuYpmUlIyEqEUnjxbd5jV7PH2XwYL02szyiN78gMyXvs7yhzXVhyeakXC3dZptBXmBxuYVxogZGblNfmlX/7zRP84JIhlyZNWebBSfiNJ+7m0IQl1W5lftwS2hQ3VmhrtJgbTl7t8q2XT3M9T+hpcOiiHqcG0T5PHp5hz9QwX3n2J1zLUtTEKk4fCnnFZzy2b5JHD+zgf3znFd5aVDwO8YIJnmDU5eyfGuIvPrqfr75whlcuLuB8DL6oBp3pc8abOX/zyffzvZNX+fZrp8lIEQze+4B31NFppvyNjxxi11ADo55cLKev3OD0tZxcxsiw9L3wwvlrTDz3Bl/8wCF2DSeg2S2dwQ1nWiHlbZrSNfDGvOGia9IXE91UHq+COsN9eZOZxginFi0XXBtXIEHvceqxPuFA1iZLhzm13OD15QY5HiMWNNS5mbzPUL+FT4e5nLV4dcGRqcWLieLWY1G2+S4uHeKy6/LKfIeeNMEkMYbtAEe778hNI3wPI/Q04fTVHktZghoJ+18MvXSM75+eY+YnZ/nsQ7sZNyEfRUSCrVnEg0oqoNTN0SYwLUJvn4EY+gTD2UnYHV6DvYVplgo880ImCRAyqbwESyxE2w0Gjc3IUhyh6lMkIM/EhFiZVUdoXNYkj8X3IU4d0aN4Eh9AkKeJN61Ym62E/siWpjgagNHQFq+XC5du9OhrjHyLwytkYrniW3z7xGUO7hjjV/aOYvLFwH5VEmLsrmCTvDfxuWl2mhBiV54i7B/jXVrkJwYbTAkwv1iFBeardE5En8XvFfdAwjWLIG9VmKtYwCokEZEWq92UuoyIQhWrSqom9tAKng/nhcVujjNJADCqIOEb5dLg7CJ8/81rXMybLPiULhYfy6WLuB6i1UK+Sdo09CjVqCl2UNAwBNheGKlFqW00YqFaaSF+Rs1QjsZz7BC3chpUFQ3JIKhGH0o8TsTEz2P5sK0JLI011+pRExBu0L1KX5Ucj/ceq2F0qjmqwpJvcPync6i8xphZopN4Jtopu7aPsGNyjOFGgvUZSXGn8ou8MwM3nGlFK4iiLq5gmyf0yhekjG0WQzci4CUwSAcZFOC7lm4uLwVTlfqRDqJ3pDLFi/uXJFEgSuxXoiaaJNV4FUHFB8ATMFXZRdwTpIKPzc66tsGbfc+p1xcw5DTUMZL0mWjOcWjiAo/sneLI9Cg7hptYycm5ufZoCcXXEH9Lk3uq2HNYzRgb7Zv4TcWgPsf6DMl7iEnD8d5jxKMux3kJqBLFeENuQksGfAaqiM/JVOiSkGmOj01dvO9HkQaSZ0CDHi1yhBwf0ubweM3DIvHB+F5QS1eUPjkZDiVHRDECgiHHkfnY+VVDp4TUJohWPSCN5qXRHto3Caop6lO6KDdyz5kuvDKf8+fnLnDvtqt89OA2Htszxli76p/wdoxT4k6T4q9bSMEai19YLJmHxBQK2OM1Y7xjOHZwknnfxIvFKXifx7YQsG/cMmEzPnhgG3OujceTGzAaLLAEODSRMsoyTxzYxqF+M/TNVwdxxxnvmO0Iw5JzdNcII0Mt0AJghIi498qw7TNiMx7Y3oIjM/HRcqGtYKE728Yx2vBoRImI0LAJiWbkscNI5TauOaeLGSnEJ9CnyZme5cLpRV4+8wpn7tnGlz50hMTkNT/p2qxbV/EYos8WTMp8LyOxQtOGr2XUs6NtefreWVwchjEpYS+F7jht1yUh45n7ZnAmBYnNjCNYMWJoaI+mdHn63ilyaWBitlWdKdb3GdY5Ht/X4VFSjEr5SJNgOxvwfUZkgZGdHY7umqDYOR7F+6g71TPKHIqw5IXTl25wfb4br1MX7avgUJWvXABGL+ReENtkoXudsampsEi8L/X4WowbiKe9FzvhpkkMuYdLXccfvXiWTCWIJA1yv/RGKDh14OMOleCFMBqQVU4d9bmg3wDBRnTnUEnwAqKG3PUpXMDBHoNEc/pYTA1thmkpImgh8SdXE8BKYVEKZS/lYDoEU8WJ5dKS4dScJ5cGrhSKdSRYzWgJNEojAhIDQ36ZJ+8/xGN370OYo6qBfzsBKSQF/L3lDIs38AhzueH5Sxk9muQa8i+8JBGuh9WnkkTPe4xOxW7caOXpD4ZAK7wXJ1YV8D486SkAdjT2rwo+zOAj1Nge0GqUWEWDmcJmUwWawbvvCxQbWRBdh+rBaLN86kymEvNQwu4oSqmq8EzxO7jejAbXmSOMp+OXeGLfJL/2K0fYZnsQ85vfCYg48STEm6rcyoTV6tYigtiEHpaupkitG0+IRUp0XxFb0sbBKUGERUiuceaUNHZDre6kJggMjc/n8kVkOvogvUpwjQF5hNTFM2OKrkBBB4P3IZSjWn+WTPD+B5PAhp1qCp3ly3LF6AJnrQ7iJn6We0V9n8mkzyfuneXzj+xld6tHqr2bQo5OlcREeX1rt1oVVRSIrWmrWJVKlXRdTp6sHEJlWKPgtVgEHpUiSW4wMcBHmeeLdASVeF2l6NW8UqasnCSp75i6sa4Sr1cgw5iZXXyslQkRtenAHbwEv6nJu+wfs3z+4UM8eWiKiWSZxHdv2h+SYmPj6UIM3OSJN0OFNVQEL60B5zUCAB9FSJFXX4Q5ZfD8Ygf6auWGZ6NVx5SapJYlXVR2QmQgoQF1ecyKCY4Xo1hswZ3mKwM9or4AbIJhXaYsCFV6eTzW4xDC06ayvI8RpYWyY3SIh/ft4OkjU9w96hniGuoULxr6gt0EA4xaErEmgIB1otKLEeFzsdaVQjxC9cyLeA7l9MVJr3vbCo9g0fdKS7FYJ6H+OMriWWlSgE/KJ2vWoHnACVoClUGGFVcqvlcYZIEKS0EqYLCIKh3j2Ds7yt7JBvfsGOXIzCi7Rx3DmmHVEWMMgMHcpLhLBRKnRf/CWxXviYOvIaiWhRYOJSG6c8l1teQv/I71v8PFpNwxUJVlaXFO/DswJO7xwi8ZGVHcy0jtuhGAaH3FrDGO+ljK3xEJFqnlhoBcHTkOz5jp87mHD/LM/TvZnnZpah/cMlZd7RkAYQzvJardx5Gs34McChEkNIww1rKczRxV7cAa/ba1ttviNgxuo1WXrc6pjX918cXgxctri0KtD3F1yCBjqrfXniDVotOAImrL2oGO9nl4R4dPvm+KXWaONFuO/SXlba9188pJMRVouLU7rU6pEcYaBqvBu+bWcOa+0wjW3H3lG4Mvgw9SB3Zmta/eeYEW4nDwfqvHoko04Ktjih2bqmfa9vncscPsbPRJtB/MgXe5982TwVQKfH2YpgpWlOmRFkZDtcvbluu9yxBWM0xrE1fhyFUIsRCZKz6ri9bqvRroWQOeFQ8zqo6XaBcGpDkkfZ55+AD3bEtp+i5EtFsZFj8/bUg8LcGze3KUTkxTLHIR6+QrVBKARYTrfsVWqk/j2it3NWMHRG7tdd3MCOJYV1xz5WKugXmp2CAYBEPqHQ/fNcHTD+xmSBfLtrrmFudCmmow65NkKRKctrsnhphoBkNefLUrQk59kcZdob2grFZvveKtMjV85ecrOLkWwyjvzoA4LIFLceYKhFLo2XhS1C6C8w6rnsPbmvzaB/azTeZIJYcYQL3VUmxDdpqgjLdTZsaaGM0H1u/qr7P2kFR1VTF/setWIrvaSWtfy1e7bKUorTDv25xLEWEP3yL4QzzbWxlfeGwXB0aWsL5XZjivB20Q0xwt2+fw9DBNVVyMp1VJ3Wt/Pa3thsEPdOCod6M6KBk4fC2m6hrHDZxSlNYH2Gp9xkza4zcf38vjO6Hj+iSmuPS6wPINYpp6bL7MkekhZkZSlLxU+FrTOe80UStRYvXZwJHVy0IEv4d5uxm3ucbnljqURHN2pn2+9MRBPnqwQ4c+iTHryjDYAKYFGK5YPDs6yvtnR2i4LH7xwn9fAY4COnsGQUGly6D0S76NKVC2hl85eUEVlWW9g8zXFfMcRlU8jy08AzSUFHuFhmbs7WT81ScP8/HDw4zSxSK4lZb6OtAG7LQwE4LQ0i7H9o2zfzwliSltBokxrhqiWwHlVzmTdfWk1z+TQT7VXmvFsFqYQIvm/eU9K399qPRWrPrSdOiQc2Tc8NeeupfH72rR0QVCakERtFm/XQYblkIn8WaenR3Hh++ZYcz0sQXEVj9gAoQNUvNRFtBFq2sNbsPKEKj886vpndRVdbnqUyG4xiT6JUUDw45Op/z1j9/Lw7OWIV0s76i87VK6pbRBPV9Cnr4XpaU9Htw1xH2zQzS1C/jQkaCwOGr+xnBm5bHR2par5njAXfuOSmzAxitPr/yMJTKsRQ8KJhigrV2e2DvMbz19L0fG+7T9QoiQSBHu9TFHZB1JDMnqZirrREp8botj3Czyifv3cHnuNV67ltGTJsG3XlTSvMN6HXD4rvyg1tCFQWCxSn+VvwePKVMgiJlfgHE5Ew3lUw/exa++b5zx9AZNDennwd1eRPfWcyaLEBTID4//UP06GdbvRD3b4qVLyh8+e4q3FoUuNpoBGajBU1S9DLjfceXLOD2+Eq0rJWadaZVtFYFP4TvUGB0Iyg2RpPSO4B0dk3PvzBCfPjrLI7MpwywPLIyNoQrcJGpJNutJM428x31Tw2SP3MWXn3uTny5CHx/9eEBd5K14p75TyrqxlZ75useDyPwQswGCrVWPDgSGhfo2g8f4HvsnGzx5z24+dGiSHY0uiV+GDWdY/BKRcpSklrK7oWTE0PE9HtreYvjxu/mD597ktStdeqZJGeAMmj0M20eIuQIPDprnldlQHlGAFxlktpaR6dhJ1VgsgmRLzDRznnz/Hj56ZIbZdp+WLpL4vOxbsDkU7pybHHnh+EtaeCY2ckAaM5RQyE2T81mLb7x6hW+fOMuFXqhuCYasH7Ch6ubUQF5GyeUiLCOlXQYSU7frzHSlK0p8jsmX2T+W8sF7dvL44R3saOW0dIlEQgJfsV42fpeVIwYgF0VePP6iFj73jWXa4Nd30mCeIU5e6/HtE5f4wZnrXOpCLiliYpqCr4VPY2S6tARUQ5ZWIQ+J6QyFelJiLorHeMBntIxnW9tyaGaEB/ZO8cBMi21toaMxDlaPMcThbl6LxSglBOSl4y8qm8C0YhjBeREMbAUyabBIh9ev9Th+6hovn7nOlfkuS07xYhFJ8GIjI8xg+KaA/2pqO1PBh7YvRjPa1jM51Gb35BB375zg8Mwwu0cMI6ZHyy2+65g3b6cVpJvPtAocQJUJL+SkLNo255fgzYuLvH7hOmeuzXF5oc9ipmTe4Ehjrkld7IXUNqtKIkozgZFGwvRYi9nxNgemx9m1bZjptjBswsPQcT3CM7Q3eAJ+JtpEptWxYaGZrAo+FuWVsM+mZNqgqylLpFzLlcvzPa4s9LjR9SxmSs+5Mg0gSSxDNmG8nTI5ZJnoJIy3LMM2oy05qWYkGhstaUgSchLdVZuHMt4DbamHKUSDqea38EbAO1JdJpEuwwhTqXJ4AmQinOUlwUkj4MiYpSR4RCEogwMAAACvSURBVLNg83mPFQXfw0iKElpRhHLb2HhapeyscDtQybSNHrKs8brKGpZy5Vd6L7qTykhw+NtqvuYOGQhAoyCN0jCXKI5jcKj0Md4utIV22iCtbcKu9By+/ZHv9W63E23phmZ3aG26w7TbjELaeS30cYduB5L6TrvDtNuD5I54vB3pDtNuM6qKPu7QbUWJoWr+dUevbUWq+VVDDgSJapVttF49Du7Qz0NVdploqD3//7BQ3Z8HHJbLAAAAAElFTkSuQmCC;" vertex="1" parent="1">
          <mxGeometry x="717.32" y="330" width="69.36" height="70" as="geometry" />
        </mxCell>
        <mxCell id="ad717CbtWpxfhqgO-wQq-8" value="" style="shape=image;verticalLabelPosition=bottom;labelBackgroundColor=default;verticalAlign=top;aspect=fixed;imageAspect=0;image=data:image/png,iVBORw0KGgoAAAANSUhEUgAAAG0AAABuCAYAAAAtbJ34AAAgAElEQVR4nO2dZ4xlx5Xff6fq3pc69/R0T0/gZHLEoGEYckVRgZREiVpBsiUvhN01ZNjG2us1DDjsBwM2YH/3JwP+YjgAC8Nw3l3Z8q7WWK1lydYqUBwGBYphhqQm55mO7717q44/VN3wupvkUJoOI83B9PTr926oV6fqnP+JV158/nX15KAgCHVS1iDx1cs1j1/zrJukn+fcXw6yWBJcj8Q44CanbF3n1b/7Ib/s5C2JSLFfdBU/ZPUp67wX1rrjHaqTmITEiwuMEEFWcOSOsNp6lJFhiDvN3OHQbUEiHiP688OHO7RxJIARtHi5ycO5QzdDooJRzC2A6reGpPZb0IG/ie+9l+v8IpIgxfYStgLTKtIS0db/X41vtWRu/Uc1/AS6WVavRfWrbg0SIFEF2SJjKiZXxIa/wj+0YKIIRhURg9dVZ5V/i5GKeWveqTr23UlWvN58WzLZ7AGsoriCnAfEINaG91RBPVb7aGRcMefhVzG5HlXBqcdIECRSqO2ov42xeO8Gbrua9SCRQSIW1ULvK5sqlXSrMU0cjoS+U+YWu7z604ucu7rIwuIyzVaDnTPbeOjgNKNNQDMUwWOjjM/DREuDhb7yxtnLXJtbAoTtYx0O7pik2TSAx/kMI2ZAhBpj8KpxdypGBBHFuTyK4HDuViB58bmXVGTzdFqhkQTFpw2+/vIlvvLcKU7cyFnIFJIUL4AacjxHx5S/98z7OTABVjKcGlDBqqOrDf73K1f4L985ydmuoevDXmmnll2tPl86tpOnjuzGGofHgSpODW9dnOf7b17ltRuW6wtLpCrMjiccmW3z4F1T7BwZAjK8gGqhI/Xn0pY/K4mWTNvwe5dUMQ2uaZN/8u+/xY+7I3RJ8UZQ1ydFycTQsx1Gtc/u7C3+2W99lul0CfE9MIbMdPiXXznOn7zRpd+eIvfgvKOHoCahQcZI7wpfuGeE3/70Q0h/gQu9Jv/8y9/iuYtdXGsbatqoeJwPI0qzBbbrPJ95aC9f+PARhtwCEjWsxp1XmUwbQ7KVxKPGyb3uUvq2Qcf1+Ni9u3ns7hnGOwmXF3P+9dde5K2FBmdkO//h6y/wdz79EC3NyOww/+qrz/GNU568MUmSLfLZR/ZzdN8US5ny1eMneO5cj2utWf705FX2v3iWJ+7fyx8/+yI/upYw196D2AZ4hzFKpg7nIW2MImaM//qDq5y88j3+7mceYlSWg5Ekm4cqtwzTAFQT+ho01GzH8+sfPMQOuUqDRfKRFpO/epR//PvHWaTN905c4tx8xq52kx+fW+Zrry9wI51mOsn5nc98gIdnE4Z1EY9w7K4H+crLl/m9b57gkhnlvz97gqP3HebeI4f57vmfcP26kmnGdNvzD774cdqScWW+x/HXz/HNl05y1Y7xzdPX2f3d1/krHzqE9b04XjZ4nwUyyFaw0MJXtxIMfVGh4fq03QItXSLxXTr5PO+fgIf3jJOgzOfChbllFmnxH//sORaSbajL+AvH9vLBWWE8u0LTLdF2C0z3z/HrR2d4dM8wKoYzywnX5uZ5344Wv/uXP8k2u0RDPCMsczS9yDFzmk9MzvM7T+zlbz1zDJsv0m9M8L9evsr5RSVzhSGyOfZS8BNvqp1WU+uagWhYSQiJCZjN+SDLU4GOQGItGsd8cb7PK5e6eE3YM2L59H1TJPkc4HHRyE58Tmf5Mo/uHEW6S/SlzdJyjyE3z3h2iaF8HqsGQ0oiQmKgTZdtvTN8bF+Tp+7eTqJwPm9x/MRF1DZQ9WGUm7Dit4TDUSSodycJXhxOeigZqh7vFUxCzzS4sNDj5bfOIqqk4tg+OcHpi/Ms2FGc9Hnk0E5Gmg5DFr6ZtTixiLVYHENWwULPCEu9PlYsRg1gcGJwWBzhd64CAsN+jmce3IuRDCeGn15aBNsElbjJNt4M2BI6zXmP2JSLV66R5xZxHiM5N65cp5UukmH48ekb/MELV7mQj5BJxscf2M/kcMK35uZZTIew2RJHplvYfDnwC1Cfg4BHyQzMLS1hrUVVSRsNvFbO8oAIHVYU8R4jQQQmPmd6eAjjPd5YbvRyQJDC4N8E2hJME0Bswte+9xwLrkXXtnkzc/yj33+eRB3LNJinRS8ZpWuE/W3PX3rifppuieV+P5jYKowPCajBkJQTqt4BiiYpJ85dQk1CkvUYHuqgLEcA7zFaeDYtYixeM0DwknDu+iKLWEQtQ+0UUUdYCrIqT2YjKBHdXJVW+BRzlzOzfRvZG9fxtkPfdrhBIxrVhkyVLOtx/1SDf/iFj7AnvU7qM0Y6QyA9vAp9J9H15MgJ+sYi9Lzl/ELOD88tYxhiV2uJnaMNxC2DMSgGLwIk5DhUFTB4PF2b8PXnfwAmpZc7doyNBH0WxaNuAn7cEjvNoBh1fPSRo/ynH30X5wxplnF453bo9Wg2DFOTwzxwaJYHZ5tM+Ws03DIqhh2TI6T5GaSR8PwrP+Ujuw/isx7WBDeUquBbY/y3P3qOazqM05yPPXSQjmQoDu89qh5VsOpJ8Fh1eCyatHj5/BLfOXkF09zJRMtz7N59eDe/qV72TWdaYaIaVVLJaJBhvGW65fnbn/0A49IltR5LTsMt0PKXaWhw9maq7JkaZkLmmUum+L+vXuLY3hE+dHAa/DIOZUka/NkPTvONN7v0zDb2DitPHT1AqnNx3jUgVlFSYzBiUdvk/ILyvTcu8YfPnmC5sR3T7/Kph/Yw2xHSrIw7sOEGk2wBphVfWUWBHIND1dOiy4S7wHa5gXFEx5EPACB6IwzK9rbw1AN38eUfzXFJtvEv/vTHnL+0wJE9k+TAN156la+fnONac5Z2tsxvPHGEKbOE9f2olUL0wAPX+8q/+z8/4vqVy7x6pcvZfoesMY7Pejyye4TffGw/rewiqQhuE43bTWcaVMEOiapdRVB1WDISzTAiOIK+8pqggFeHEWWIZb745DGeffNrvLboOZ3s5Peev0zrOyfxGHqtSZYas0hvns8/coCPHRxnKL+CiOJV8KqICE5zLuTwn3+yBI0puokB40mXrvLRu6f57U8dY3t+jkRyvG6upZQUDlBkcwzFOikw0Wly7vIcI0M2GNliSpQW9kMwaq2EzxI8E9kl/ukXP8i/+fNTPHviDDdcg8VkJsjdXJlIcr749KM8c9jQzi9jNEfFoGKwknD4wF289fpVcixeE6zJmWw3OLpvmk8euZ9HZxLa2VlSk+FJI/iox9U2Tr85UeT54y+o3QIhdUXI0iG+ecrx3Z+8wWMHpvnQ/jE6boEqkdZjMHiqKbMEIJObhHnb4cSNFj8+c5mL13uYtMXMxBAP7Ghzd3uOJkvgPZ5iISiZbXPOj/H/Tl7D0WRiqMn2EcNsG6ZtjyHt4vI+aqJoVlu7+8YzzUNgWljRq5NVN5oMsGCGyWyD1Pdo+i6JBmO2PrQi+hd+JLLAAZa+dFBrccbiPBif0dQeiWaAQ7H4ela1GHIsuWmQ+gZGHY4elgxDHv18Bi9gNQ1xuE301no8SYrFF8kYm0jBj6e03TIt7YNkGHFxXAWbBk3ZKsHAlBGuhs6jueA8WGNIYrKIQ/BiAQseRDTgGe+weFI8+G4wP8SX9/NxMRsMkG/UdLwtpZoWQGQzAgyDpIAXwRDsJtCYl1GQDBw7+G4BY4jaLzibQfHRaaxC8R8m2liqlAlp4n0l8MqFUrvnJrmsVpMn0S2S9wArSqV0dSlV7dOBd2Tgrzqyk2r+qTNYa8fXjy5+r72AtwLbcnFbw8t/h94LyZ26i9uPBLOpWT136D2TCkUi/x3G3U50R6fdhnSHabch3WHa7UZqflmYFvJApPSsBKosNqkleW+98qYBEv1lYRoED4sOsENRVOIPIdJ9K7qhrC/p1oinrT8piMGLxRqDlG6tnDI/klCs54oyKraCc29t+qVgmiL0nOONC5e5tuSw3kYfpwOjeHW0Usv9u6dJEykde1uRYWylAoz1JCeGqy7lG6d7fPtsTuZTTHQme/FY+uxoKb8722QmEQyujNptRTGZQOXU3ux42rqRKqmx9PIGS7nHmRT1GgPbHtQw2s9JBRpk+Jg9shVJMDFt3hAK936BKaSeh1ptLTOKQ68AYxK8hkxHtyoqvbXICBhRKbLIfoGpAPQSQUaodgkxaBMDnBV6DAizCIRuLYpqWENkduuN7xZTxIJqQmGHxgBp/CgU3iuDHRG23qSoNSQUvRu2lAwfDGtW/7PKQK7nj4RPVmqjaJkJgUnln0LZYEZ9hP+FGF1rHFuDcslDLv/WG9wa2bsCikc0IbSdqBf0BU6oKiqewtETjgkKW1Sx5Jj+PJI0wGvoZgBYdaTSx2UO07C4eP/NKIR/Nwqp61uSgj4R9RhjcV5LIFHoJjUGFQGXkYjiSTESMq2KFAqNmchWHGNW+cQDezh670GMAXyVvShAw/eZHPJ4uoAp0km23HKGLWqnhdx+sEbouZzTV+dDcaAY0AyjBhdbQ4y3hfFOg3NXbuDVIrGrDyhOBFUYTj0z4022+yU6uZLQx0WmGQm13qiQ+EZUe0moitncaXhb2pJM8zHPsIvlzYWc//nDq5zvG7w26GtO4iV2Y8t5dP92Hjm4na/88BynF4W+SQPE8nnIR3YZ982O8Pljs/zxq2/ywtklvKRkGsStAcQr0w3l73/iEKNNXwhbtuI+W9GSYisNMpb3CWAbXF5ucLbfRAnlvUYD4lVnmHMpkja4nKWc6TdCMxiK3noCmnG9bzEm5Ube4XwfMkmDANYgRq0qQg8fcyGLnRpoq8xJoFBFtwWp6omjeIRMLJk0UKkDDMB4VAIKdJKQSyN47DX+hE9wURd6DJ6EHDtwJxFFYxO1epDmvcGQYtGvf/+srR2a0ZBYWiSb1nP4y2kpN0Lwcnj1kdmhwFaLlHfCwRqvOwAyfs45DlctxOr605ZmWl1AWTEDkxLsLVO+owhosL5CM7JwdOiGLrEoPoY5TVF6W7vBzzzbMU4nRbe89U/+3UTxWDeSVxrMFYXdErtRaYTxtQkuxGAMaQZtJh6JTAp6K04oiohHhHJHFn784i7FMMLUV2u6yk5e+S0ETRpcWQ5nTLYFXM7qVXDrxOWmM01r3omQLu8Bg41Rh4ZC4nskeYIVQ66CRLhO3sc4hzgfq2IkrHjfCzaegrp+AJOqeO0ifgGjTUQr34n4DGtdMCO84o3FiaHqXRCYb4gmAqHoMehSy+Wu4U9eOEXmHB8+MsOBbS2Md9EbX680uDW0iUwrDGhKkWIweAmMdCiGnImm5SP37eIGzRgyaWIxiHcY9RwYEaaSPk+9bwfvy6LBrTb45zTU02xPlFFVHj+4k30zDkXJNRToaQx2DNNj2CpiIkLTcFyBL6RmCKiG0I0Xw6I2ePbUNb5+8jpdJ1xaUj738B4OTqSkFL0iPbdS28lLx1+qKh42RI0GpZ0YyD0sdnOMSTAxVwPAqUW9YzzxiEk53zNI2kTog1hAQgjFCMO+x4RRLuYpmUlIyEqEUnjxbd5jV7PH2XwYL02szyiN78gMyXvs7yhzXVhyeakXC3dZptBXmBxuYVxogZGblNfmlX/7zRP84JIhlyZNWebBSfiNJ+7m0IQl1W5lftwS2hQ3VmhrtJgbTl7t8q2XT3M9T+hpcOiiHqcG0T5PHp5hz9QwX3n2J1zLUtTEKk4fCnnFZzy2b5JHD+zgf3znFd5aVDwO8YIJnmDU5eyfGuIvPrqfr75whlcuLuB8DL6oBp3pc8abOX/zyffzvZNX+fZrp8lIEQze+4B31NFppvyNjxxi11ADo55cLKev3OD0tZxcxsiw9L3wwvlrTDz3Bl/8wCF2DSeg2S2dwQ1nWiHlbZrSNfDGvOGia9IXE91UHq+COsN9eZOZxginFi0XXBtXIEHvceqxPuFA1iZLhzm13OD15QY5HiMWNNS5mbzPUL+FT4e5nLV4dcGRqcWLieLWY1G2+S4uHeKy6/LKfIeeNMEkMYbtAEe778hNI3wPI/Q04fTVHktZghoJ+18MvXSM75+eY+YnZ/nsQ7sZNyEfRUSCrVnEg0oqoNTN0SYwLUJvn4EY+gTD2UnYHV6DvYVplgo880ImCRAyqbwESyxE2w0Gjc3IUhyh6lMkIM/EhFiZVUdoXNYkj8X3IU4d0aN4Eh9AkKeJN61Ym62E/siWpjgagNHQFq+XC5du9OhrjHyLwytkYrniW3z7xGUO7hjjV/aOYvLFwH5VEmLsrmCTvDfxuWl2mhBiV54i7B/jXVrkJwYbTAkwv1iFBeardE5En8XvFfdAwjWLIG9VmKtYwCokEZEWq92UuoyIQhWrSqom9tAKng/nhcVujjNJADCqIOEb5dLg7CJ8/81rXMybLPiULhYfy6WLuB6i1UK+Sdo09CjVqCl2UNAwBNheGKlFqW00YqFaaSF+Rs1QjsZz7BC3chpUFQ3JIKhGH0o8TsTEz2P5sK0JLI011+pRExBu0L1KX5Ucj/ceq2F0qjmqwpJvcPync6i8xphZopN4Jtopu7aPsGNyjOFGgvUZSXGn8ou8MwM3nGlFK4iiLq5gmyf0yhekjG0WQzci4CUwSAcZFOC7lm4uLwVTlfqRDqJ3pDLFi/uXJFEgSuxXoiaaJNV4FUHFB8ATMFXZRdwTpIKPzc66tsGbfc+p1xcw5DTUMZL0mWjOcWjiAo/sneLI9Cg7hptYycm5ufZoCcXXEH9Lk3uq2HNYzRgb7Zv4TcWgPsf6DMl7iEnD8d5jxKMux3kJqBLFeENuQksGfAaqiM/JVOiSkGmOj01dvO9HkQaSZ0CDHi1yhBwf0ubweM3DIvHB+F5QS1eUPjkZDiVHRDECgiHHkfnY+VVDp4TUJohWPSCN5qXRHto3Caop6lO6KDdyz5kuvDKf8+fnLnDvtqt89OA2Htszxli76p/wdoxT4k6T4q9bSMEai19YLJmHxBQK2OM1Y7xjOHZwknnfxIvFKXifx7YQsG/cMmEzPnhgG3OujceTGzAaLLAEODSRMsoyTxzYxqF+M/TNVwdxxxnvmO0Iw5JzdNcII0Mt0AJghIi498qw7TNiMx7Y3oIjM/HRcqGtYKE728Yx2vBoRImI0LAJiWbkscNI5TauOaeLGSnEJ9CnyZme5cLpRV4+8wpn7tnGlz50hMTkNT/p2qxbV/EYos8WTMp8LyOxQtOGr2XUs6NtefreWVwchjEpYS+F7jht1yUh45n7ZnAmBYnNjCNYMWJoaI+mdHn63ilyaWBitlWdKdb3GdY5Ht/X4VFSjEr5SJNgOxvwfUZkgZGdHY7umqDYOR7F+6g71TPKHIqw5IXTl25wfb4br1MX7avgUJWvXABGL+ReENtkoXudsampsEi8L/X4WowbiKe9FzvhpkkMuYdLXccfvXiWTCWIJA1yv/RGKDh14OMOleCFMBqQVU4d9bmg3wDBRnTnUEnwAqKG3PUpXMDBHoNEc/pYTA1thmkpImgh8SdXE8BKYVEKZS/lYDoEU8WJ5dKS4dScJ5cGrhSKdSRYzWgJNEojAhIDQ36ZJ+8/xGN370OYo6qBfzsBKSQF/L3lDIs38AhzueH5Sxk9muQa8i+8JBGuh9WnkkTPe4xOxW7caOXpD4ZAK7wXJ1YV8D486SkAdjT2rwo+zOAj1Nge0GqUWEWDmcJmUwWawbvvCxQbWRBdh+rBaLN86kymEvNQwu4oSqmq8EzxO7jejAbXmSOMp+OXeGLfJL/2K0fYZnsQ85vfCYg48STEm6rcyoTV6tYigtiEHpaupkitG0+IRUp0XxFb0sbBKUGERUiuceaUNHZDre6kJggMjc/n8kVkOvogvUpwjQF5hNTFM2OKrkBBB4P3IZSjWn+WTPD+B5PAhp1qCp3ly3LF6AJnrQ7iJn6We0V9n8mkzyfuneXzj+xld6tHqr2bQo5OlcREeX1rt1oVVRSIrWmrWJVKlXRdTp6sHEJlWKPgtVgEHpUiSW4wMcBHmeeLdASVeF2l6NW8UqasnCSp75i6sa4Sr1cgw5iZXXyslQkRtenAHbwEv6nJu+wfs3z+4UM8eWiKiWSZxHdv2h+SYmPj6UIM3OSJN0OFNVQEL60B5zUCAB9FSJFXX4Q5ZfD8Ygf6auWGZ6NVx5SapJYlXVR2QmQgoQF1ecyKCY4Xo1hswZ3mKwM9or4AbIJhXaYsCFV6eTzW4xDC06ayvI8RpYWyY3SIh/ft4OkjU9w96hniGuoULxr6gt0EA4xaErEmgIB1otKLEeFzsdaVQjxC9cyLeA7l9MVJr3vbCo9g0fdKS7FYJ6H+OMriWWlSgE/KJ2vWoHnACVoClUGGFVcqvlcYZIEKS0EqYLCIKh3j2Ds7yt7JBvfsGOXIzCi7Rx3DmmHVEWMMgMHcpLhLBRKnRf/CWxXviYOvIaiWhRYOJSG6c8l1teQv/I71v8PFpNwxUJVlaXFO/DswJO7xwi8ZGVHcy0jtuhGAaH3FrDGO+ljK3xEJFqnlhoBcHTkOz5jp87mHD/LM/TvZnnZpah/cMlZd7RkAYQzvJardx5Gs34McChEkNIww1rKczRxV7cAa/ba1ttviNgxuo1WXrc6pjX918cXgxctri0KtD3F1yCBjqrfXniDVotOAImrL2oGO9nl4R4dPvm+KXWaONFuO/SXlba9188pJMRVouLU7rU6pEcYaBqvBu+bWcOa+0wjW3H3lG4Mvgw9SB3Zmta/eeYEW4nDwfqvHoko04Ktjih2bqmfa9vncscPsbPRJtB/MgXe5982TwVQKfH2YpgpWlOmRFkZDtcvbluu9yxBWM0xrE1fhyFUIsRCZKz6ri9bqvRroWQOeFQ8zqo6XaBcGpDkkfZ55+AD3bEtp+i5EtFsZFj8/bUg8LcGze3KUTkxTLHIR6+QrVBKARYTrfsVWqk/j2it3NWMHRG7tdd3MCOJYV1xz5WKugXmp2CAYBEPqHQ/fNcHTD+xmSBfLtrrmFudCmmow65NkKRKctrsnhphoBkNefLUrQk59kcZdob2grFZvveKtMjV85ecrOLkWwyjvzoA4LIFLceYKhFLo2XhS1C6C8w6rnsPbmvzaB/azTeZIJYcYQL3VUmxDdpqgjLdTZsaaGM0H1u/qr7P2kFR1VTF/setWIrvaSWtfy1e7bKUorTDv25xLEWEP3yL4QzzbWxlfeGwXB0aWsL5XZjivB20Q0xwt2+fw9DBNVVyMp1VJ3Wt/Pa3thsEPdOCod6M6KBk4fC2m6hrHDZxSlNYH2Gp9xkza4zcf38vjO6Hj+iSmuPS6wPINYpp6bL7MkekhZkZSlLxU+FrTOe80UStRYvXZwJHVy0IEv4d5uxm3ucbnljqURHN2pn2+9MRBPnqwQ4c+iTHryjDYAKYFGK5YPDs6yvtnR2i4LH7xwn9fAY4COnsGQUGly6D0S76NKVC2hl85eUEVlWW9g8zXFfMcRlU8jy08AzSUFHuFhmbs7WT81ScP8/HDw4zSxSK4lZb6OtAG7LQwE4LQ0i7H9o2zfzwliSltBokxrhqiWwHlVzmTdfWk1z+TQT7VXmvFsFqYQIvm/eU9K399qPRWrPrSdOiQc2Tc8NeeupfH72rR0QVCakERtFm/XQYblkIn8WaenR3Hh++ZYcz0sQXEVj9gAoQNUvNRFtBFq2sNbsPKEKj886vpndRVdbnqUyG4xiT6JUUDw45Op/z1j9/Lw7OWIV0s76i87VK6pbRBPV9Cnr4XpaU9Htw1xH2zQzS1C/jQkaCwOGr+xnBm5bHR2par5njAXfuOSmzAxitPr/yMJTKsRQ8KJhigrV2e2DvMbz19L0fG+7T9QoiQSBHu9TFHZB1JDMnqZirrREp8botj3Czyifv3cHnuNV67ltGTJsG3XlTSvMN6HXD4rvyg1tCFQWCxSn+VvwePKVMgiJlfgHE5Ew3lUw/exa++b5zx9AZNDennwd1eRPfWcyaLEBTID4//UP06GdbvRD3b4qVLyh8+e4q3FoUuNpoBGajBU1S9DLjfceXLOD2+Eq0rJWadaZVtFYFP4TvUGB0Iyg2RpPSO4B0dk3PvzBCfPjrLI7MpwywPLIyNoQrcJGpJNutJM428x31Tw2SP3MWXn3uTny5CHx/9eEBd5K14p75TyrqxlZ75useDyPwQswGCrVWPDgSGhfo2g8f4HvsnGzx5z24+dGiSHY0uiV+GDWdY/BKRcpSklrK7oWTE0PE9HtreYvjxu/mD597ktStdeqZJGeAMmj0M20eIuQIPDprnldlQHlGAFxlktpaR6dhJ1VgsgmRLzDRznnz/Hj56ZIbZdp+WLpL4vOxbsDkU7pybHHnh+EtaeCY2ckAaM5RQyE2T81mLb7x6hW+fOMuFXqhuCYasH7Ch6ubUQF5GyeUiLCOlXQYSU7frzHSlK0p8jsmX2T+W8sF7dvL44R3saOW0dIlEQgJfsV42fpeVIwYgF0VePP6iFj73jWXa4Nd30mCeIU5e6/HtE5f4wZnrXOpCLiliYpqCr4VPY2S6tARUQ5ZWIQ+J6QyFelJiLorHeMBntIxnW9tyaGaEB/ZO8cBMi21toaMxDlaPMcThbl6LxSglBOSl4y8qm8C0YhjBeREMbAUyabBIh9ev9Th+6hovn7nOlfkuS07xYhFJ8GIjI8xg+KaA/2pqO1PBh7YvRjPa1jM51Gb35BB375zg8Mwwu0cMI6ZHyy2+65g3b6cVpJvPtAocQJUJL+SkLNo255fgzYuLvH7hOmeuzXF5oc9ipmTe4Ehjrkld7IXUNqtKIkozgZFGwvRYi9nxNgemx9m1bZjptjBswsPQcT3CM7Q3eAJ+JtpEptWxYaGZrAo+FuWVsM+mZNqgqylLpFzLlcvzPa4s9LjR9SxmSs+5Mg0gSSxDNmG8nTI5ZJnoJIy3LMM2oy05qWYkGhstaUgSchLdVZuHMt4DbamHKUSDqea38EbAO1JdJpEuwwhTqXJ4AmQinOUlwUkj4MiYpSR4RCEogwMAAACvSURBVLNg83mPFQXfw0iKElpRhHLb2HhapeyscDtQybSNHrKs8brKGpZy5Vd6L7qTykhw+NtqvuYOGQhAoyCN0jCXKI5jcKj0Md4utIV22iCtbcKu9By+/ZHv9W63E23phmZ3aG26w7TbjELaeS30cYduB5L6TrvDtNuD5I54vB3pDtNuM6qKPu7QbUWJoWr+dUevbUWq+VVDDgSJapVttF49Du7Qz0NVdploqD3//7BQ3Z8HHJbLAAAAAElFTkSuQmCC;" vertex="1" parent="1">
          <mxGeometry x="717.32" y="410" width="69.36" height="70" as="geometry" />
        </mxCell>
      </root>
    </mxGraphModel>
  </diagram>
</mxfile>
